# xmcd CD database file
#
# Track frame offsets:
#	150
#	11622
#	24295
#	54656
#	83915
#	103276
#	128674
#	148747
#	168627
#	179662
#	202190
#	219023
#	241463
#	278048
#	303014
#
# Disc length: 4460 seconds
#
# Revision: 1
# Processed by: cddbd v1.4PL0 Copyright (c) Steve Scherf et al.
# Submitted via: CDex 1.50
#
DISCID=d3116a0f
DTITLE=Led Zeppelin - The Best
DYEAR=1900
DGENRE=Rock
TTITLE0=Communication Breakdown
TTITLE1=Good Times Bad Times
TTITLE2=Babe I Gonna Leave You
TTITLE3=Dazed And Confused
TTITLE4=Heartbreaker
TTITLE5=Whole Lotta Love
TTITLE6=Ramble On
TTITLE7=Moby Dick
TTITLE8=Immigrant Song
TTITLE9=Gallows Pole
TTITLE10=Rock And Roll
TTITLE11=Black Dog
TTITLE12=Stairway To Heaven
TTITLE13=The Song Remains The Same
TTITLE14=No Quarter
EXTD=
EXTT0=
EXTT1=
EXTT2=
EXTT3=
EXTT4=
EXTT5=
EXTT6=
EXTT7=
EXTT8=
EXTT9=
EXTT10=
EXTT11=
EXTT12=
EXTT13=
EXTT14=
PLAYORDER=
